<svg xmlns="http://www.w3.org/2000/svg" viewBox="0 0 64 64"><title>Artboard-18</title><g id="Book"><polygon points="26 55 34 55 34 63 30 60 26 63 26 55" style="fill:#ffb125"/><rect x="47" y="1" width="6" height="5" style="fill:#ba2020"/><polygon points="47 56 47 20 53 20 53 56 50 60 47 56" style="fill:#f25757"/><path d="M5,55a4.0045,4.0045,0,0,1-4-4V5A4.0045,4.0045,0,0,1,5,1H41V55Z" style="fill:#fcd354"/><rect x="45" y="6" width="10" height="14" style="fill:#d63434"/><rect x="7" y="1" width="5" height="54" style="fill:#ffb125"/><path d="M63,31H62a2.0023,2.0023,0,0,1-2-2V9a4.0042,4.0042,0,0,0-4-4H54V1a1,1,0,0,0-1-1H47a1,1,0,0,0-1,1V5H45a1,1,0,0,0-1,1V20a1,1,0,0,0,1,1h1V56a1.0006,1.0006,0,0,0,.2.6L49,60.3332V63a1,1,0,0,0,2,0V60.3332L53.8,56.6A1.0006,1.0006,0,0,0,54,56V21h1a1,1,0,0,0,1-1V7a2.0023,2.0023,0,0,1,2,2V29a4.0042,4.0042,0,0,0,4,4h1a1,1,0,0,0,0-2ZM48,2h4V5H48Zm4,53.6665-2,2.667-2-2.667V21h4ZM54,19H46V7h8Z" style="fill:#231e23"/><path d="M41,0H5A5.0059,5.0059,0,0,0,0,5V51a5.0059,5.0059,0,0,0,5,5H25v7a1,1,0,0,0,1.6.8L30,61.25l3.4,2.55A1,1,0,0,0,35,63V56h6a1,1,0,0,0,1-1V1A1,1,0,0,0,41,0ZM2,51V5A3.0033,3.0033,0,0,1,5,2H6V54H5A3.0033,3.0033,0,0,1,2,51Zm6,3V2h3V54Zm25,7-2.4-1.8a1,1,0,0,0-1.2,0L27,61V56h6Zm7-7H13V2H40Z" style="fill:#231e23"/><path d="M17,10H33a1,1,0,0,0,0-2H17a1,1,0,0,0,0,2Z" style="fill:#231e23"/><path d="M26,13H17a1,1,0,0,0,0,2h9a1,1,0,0,0,0-2Z" style="fill:#231e23"/></g></svg>